<mxfile host="app.diagrams.net" agent="Mozilla/5.0 (Windows NT 10.0; Win64; x64) AppleWebKit/537.36 (KHTML, like Gecko) Chrome/109.0.0.0 Safari/537.36" version="28.0.5">
  <diagram name="第 1 页" id="Kh0eAdNEsZ7AOxpRA7_R">
    <mxGraphModel dx="1426" dy="801" grid="1" gridSize="10" guides="1" tooltips="1" connect="1" arrows="1" fold="1" page="1" pageScale="1" pageWidth="827" pageHeight="1169" math="0" shadow="0">
      <root>
        <mxCell id="0" />
        <mxCell id="1" parent="0" />
        <mxCell id="zcp2NS08m-WX-ouz2w57-2" value="&lt;span style=&quot;font-size: 16px;&quot;&gt;发布货运订单流程&lt;/span&gt;" style="swimlane;whiteSpace=wrap;html=1;" vertex="1" parent="1">
          <mxGeometry x="320" y="220" width="640" height="640" as="geometry">
            <mxRectangle x="320" y="40" width="220" height="30" as="alternateBounds" />
          </mxGeometry>
        </mxCell>
        <mxCell id="zcp2NS08m-WX-ouz2w57-3" value="有运输需求企业" style="rounded=0;whiteSpace=wrap;html=1;" vertex="1" parent="zcp2NS08m-WX-ouz2w57-2">
          <mxGeometry x="20" y="22.5" width="300" height="57.5" as="geometry" />
        </mxCell>
        <mxCell id="zcp2NS08m-WX-ouz2w57-4" value="货运司机" style="rounded=0;whiteSpace=wrap;html=1;" vertex="1" parent="zcp2NS08m-WX-ouz2w57-2">
          <mxGeometry x="320" y="22.5" width="300" height="57.5" as="geometry" />
        </mxCell>
        <mxCell id="zcp2NS08m-WX-ouz2w57-5" value="" style="rounded=0;whiteSpace=wrap;html=1;" vertex="1" parent="zcp2NS08m-WX-ouz2w57-2">
          <mxGeometry x="20" y="80" width="300" height="540" as="geometry" />
        </mxCell>
        <mxCell id="zcp2NS08m-WX-ouz2w57-6" value="" style="rounded=0;whiteSpace=wrap;html=1;" vertex="1" parent="zcp2NS08m-WX-ouz2w57-2">
          <mxGeometry x="320" y="80" width="300" height="540" as="geometry" />
        </mxCell>
        <mxCell id="zcp2NS08m-WX-ouz2w57-7" value="" style="rounded=0;html=1;jettySize=auto;orthogonalLoop=1;fontSize=11;endArrow=block;endFill=0;endSize=8;strokeWidth=1;shadow=0;labelBackgroundColor=none;edgeStyle=orthogonalEdgeStyle;entryX=0.5;entryY=0;entryDx=0;entryDy=0;" edge="1" parent="zcp2NS08m-WX-ouz2w57-2" source="zcp2NS08m-WX-ouz2w57-8" target="zcp2NS08m-WX-ouz2w57-9">
          <mxGeometry relative="1" as="geometry">
            <mxPoint x="170" y="180" as="targetPoint" />
          </mxGeometry>
        </mxCell>
        <mxCell id="zcp2NS08m-WX-ouz2w57-8" value="开始" style="rounded=1;whiteSpace=wrap;html=1;fontSize=12;glass=0;strokeWidth=1;shadow=0;" vertex="1" parent="zcp2NS08m-WX-ouz2w57-2">
          <mxGeometry x="120" y="90" width="100" height="30" as="geometry" />
        </mxCell>
        <mxCell id="zcp2NS08m-WX-ouz2w57-9" value="设置路线，运输货物类型等信息，发布到平台" style="rounded=0;whiteSpace=wrap;html=1;" vertex="1" parent="zcp2NS08m-WX-ouz2w57-2">
          <mxGeometry x="110" y="190" width="120" height="60" as="geometry" />
        </mxCell>
        <mxCell id="zcp2NS08m-WX-ouz2w57-10" value="" style="edgeStyle=orthogonalEdgeStyle;rounded=0;orthogonalLoop=1;jettySize=auto;html=1;entryX=0;entryY=0.5;entryDx=0;entryDy=0;exitX=1;exitY=0.5;exitDx=0;exitDy=0;" edge="1" parent="zcp2NS08m-WX-ouz2w57-2" source="zcp2NS08m-WX-ouz2w57-9" target="zcp2NS08m-WX-ouz2w57-19">
          <mxGeometry relative="1" as="geometry">
            <mxPoint x="400" y="338.75" as="targetPoint" />
          </mxGeometry>
        </mxCell>
        <mxCell id="zcp2NS08m-WX-ouz2w57-12" value="结束" style="rounded=1;whiteSpace=wrap;html=1;" vertex="1" parent="zcp2NS08m-WX-ouz2w57-2">
          <mxGeometry x="130" y="540" width="80" height="30" as="geometry" />
        </mxCell>
        <mxCell id="zcp2NS08m-WX-ouz2w57-13" style="edgeStyle=orthogonalEdgeStyle;rounded=0;orthogonalLoop=1;jettySize=auto;html=1;exitX=0.5;exitY=1;exitDx=0;exitDy=0;entryX=0.5;entryY=0;entryDx=0;entryDy=0;" edge="1" parent="zcp2NS08m-WX-ouz2w57-2" source="zcp2NS08m-WX-ouz2w57-23" target="zcp2NS08m-WX-ouz2w57-17">
          <mxGeometry relative="1" as="geometry">
            <mxPoint x="470" y="460" as="sourcePoint" />
          </mxGeometry>
        </mxCell>
        <mxCell id="zcp2NS08m-WX-ouz2w57-15" style="edgeStyle=orthogonalEdgeStyle;rounded=0;orthogonalLoop=1;jettySize=auto;html=1;exitX=0.5;exitY=1;exitDx=0;exitDy=0;entryX=0.5;entryY=0;entryDx=0;entryDy=0;" edge="1" parent="zcp2NS08m-WX-ouz2w57-2" source="zcp2NS08m-WX-ouz2w57-17" target="zcp2NS08m-WX-ouz2w57-12">
          <mxGeometry relative="1" as="geometry" />
        </mxCell>
        <mxCell id="zcp2NS08m-WX-ouz2w57-17" value="发布人选择司机，修改货运订单状态" style="rounded=0;whiteSpace=wrap;html=1;" vertex="1" parent="zcp2NS08m-WX-ouz2w57-2">
          <mxGeometry x="115" y="430" width="110" height="50" as="geometry" />
        </mxCell>
        <mxCell id="zcp2NS08m-WX-ouz2w57-18" value="" style="edgeStyle=orthogonalEdgeStyle;rounded=0;orthogonalLoop=1;jettySize=auto;html=1;entryX=1;entryY=0.5;entryDx=0;entryDy=0;exitX=0.5;exitY=1;exitDx=0;exitDy=0;" edge="1" parent="zcp2NS08m-WX-ouz2w57-2" source="zcp2NS08m-WX-ouz2w57-19" target="zcp2NS08m-WX-ouz2w57-23">
          <mxGeometry relative="1" as="geometry">
            <mxPoint x="470" y="308.75" as="targetPoint" />
          </mxGeometry>
        </mxCell>
        <mxCell id="zcp2NS08m-WX-ouz2w57-19" value="司机在线报名申领订单" style="rounded=0;whiteSpace=wrap;html=1;" vertex="1" parent="zcp2NS08m-WX-ouz2w57-2">
          <mxGeometry x="410" y="190" width="120" height="60" as="geometry" />
        </mxCell>
        <mxCell id="zcp2NS08m-WX-ouz2w57-23" value="发布人浏览申请人信息，党员司机优先显示" style="whiteSpace=wrap;html=1;rounded=0;" vertex="1" parent="zcp2NS08m-WX-ouz2w57-2">
          <mxGeometry x="110" y="308.75" width="120" height="60" as="geometry" />
        </mxCell>
      </root>
    </mxGraphModel>
  </diagram>
</mxfile>
